<?xml version="1.0" encoding="iso-8859-1"?>
<!-- Generator: Adobe Illustrator 19.0.0, SVG Export Plug-In . SVG Version: 6.00 Build 0)  -->
<svg version="1.1" id="Layer_1" xmlns="http://www.w3.org/2000/svg" xmlns:xlink="http://www.w3.org/1999/xlink" x="0px" y="0px"
	 viewBox="0 0 512 512" style="enable-background:new 0 0 512 512;" xml:space="preserve">
<circle style="fill:#FFD15D;" cx="256" cy="256" r="256"/>
<path style="fill:#F9B54C;" d="M511.259,275.618L396.778,161.137l-164.911,113.25L95.335,363.258l148.444,148.444
	c4.051,0.19,8.123,0.296,12.221,0.296C390.784,512,501.238,407.836,511.259,275.618z"/>
<path style="fill:#324A5E;" d="M389.549,359.588H122.452c-5.698,0-10.318-4.62-10.318-10.318V168.495
	c0-5.698,4.62-10.318,10.318-10.318h267.095c5.698,0,10.318,4.62,10.318,10.318v180.777
	C399.867,354.969,395.247,359.588,389.549,359.588z"/>
<path style="fill:#2B3B4E;" d="M389.549,158.177H255.859v201.411h133.691c5.698,0,10.318-4.618,10.318-10.318V168.495
	C399.867,162.795,395.247,158.177,389.549,158.177z"/>
<rect x="124.345" y="169.943" style="fill:#31BAFD;" width="263.309" height="177.873"/>
<rect x="255.862" y="169.943" style="fill:#2B9ED8;" width="131.793" height="177.873"/>
<path style="fill:#2B3B4E;" d="M409.314,366.283H102.688c-5.777,0-10.459-4.682-10.459-10.459V336.93
	c0-5.777,4.682-10.459,10.459-10.459h306.626c5.777,0,10.459,4.682,10.459,10.459v18.894
	C419.773,361.601,415.089,366.283,409.314,366.283z"/>
<path style="fill:#222F3D;" d="M409.314,326.472H255.859v39.812h153.455c5.777,0,10.459-4.682,10.459-10.459V336.93
	C419.773,331.154,415.089,326.472,409.314,326.472z"/>
<g>
	<path style="fill:#FFFFFF;" d="M161.623,200.788c0,2.072-0.126,3.853-0.379,5.344c-0.253,1.489-0.721,2.841-1.402,4.055
		c-0.86,1.491-1.97,2.639-3.336,3.45c-1.364,0.809-2.879,1.212-4.548,1.212c-1.92,0-3.641-0.543-5.163-1.629
		s-2.669-2.589-3.439-4.51c-0.391-1.046-0.679-2.207-0.862-3.477c-0.183-1.269-0.274-2.643-0.274-4.122
		c0-1.905,0.102-3.625,0.303-5.153c0.202-1.527,0.517-2.841,0.946-3.941c0.746-1.819,1.829-3.205,3.25-4.158
		c1.42-0.955,3.117-1.431,5.087-1.431c1.302,0,2.482,0.212,3.543,0.634c1.062,0.424,1.993,1.041,2.794,1.857
		s1.481,1.822,2.038,3.022C161.144,194.024,161.623,196.973,161.623,200.788z M156.432,200.409c0-2.312-0.14-4.203-0.417-5.675
		c-0.278-1.472-0.745-2.582-1.402-3.336c-0.657-0.752-1.567-1.126-2.729-1.126c-1.667,0-2.825,0.84-3.477,2.52
		c-0.652,1.681-0.976,4.27-0.976,7.768c0,2.376,0.14,4.32,0.417,5.835c0.278,1.517,0.745,2.663,1.402,3.439
		c0.657,0.776,1.546,1.165,2.67,1.165c1.162,0,2.072-0.403,2.729-1.212c0.657-0.809,1.117-1.965,1.383-3.468
		C156.3,204.819,156.432,202.847,156.432,200.409z"/>
	<path style="fill:#FFFFFF;" d="M174.413,211.815v-17.241c-3.208,2.463-5.368,3.694-6.48,3.694c-0.531,0-1.002-0.21-1.412-0.634
		c-0.41-0.422-0.615-0.912-0.615-1.469c0-0.645,0.202-1.117,0.607-1.42c0.403-0.303,1.117-0.695,2.141-1.176
		c1.529-0.721,2.751-1.477,3.667-2.272c0.915-0.796,1.727-1.688,2.434-2.672c0.707-0.986,1.169-1.593,1.383-1.82
		c0.214-0.228,0.619-0.34,1.214-0.34c0.669,0,1.207,0.259,1.61,0.776c0.403,0.519,0.607,1.233,0.607,2.141v21.694
		c0,2.539-0.865,3.808-2.594,3.808c-0.771,0-1.389-0.259-1.857-0.776C174.647,213.588,174.413,212.825,174.413,211.815z"/>
	<path style="fill:#FFFFFF;" d="M207.739,200.788c0,2.072-0.126,3.853-0.379,5.344c-0.253,1.489-0.721,2.841-1.402,4.055
		c-0.86,1.491-1.97,2.639-3.336,3.45c-1.364,0.809-2.879,1.212-4.548,1.212c-1.92,0-3.641-0.543-5.163-1.629
		s-2.669-2.589-3.439-4.51c-0.391-1.046-0.679-2.207-0.862-3.477c-0.183-1.269-0.274-2.643-0.274-4.122
		c0-1.905,0.102-3.625,0.303-5.153c0.202-1.527,0.517-2.841,0.946-3.941c0.746-1.819,1.829-3.205,3.25-4.158
		c1.421-0.955,3.117-1.431,5.087-1.431c1.302,0,2.482,0.212,3.543,0.634c1.062,0.424,1.993,1.041,2.794,1.857
		c0.802,0.815,1.481,1.822,2.038,3.022C207.26,194.024,207.739,196.973,207.739,200.788z M202.549,200.409
		c0-2.312-0.14-4.203-0.417-5.675c-0.278-1.472-0.745-2.582-1.402-3.336c-0.657-0.752-1.567-1.126-2.729-1.126
		c-1.667,0-2.825,0.84-3.477,2.52c-0.652,1.681-0.976,4.27-0.976,7.768c0,2.376,0.14,4.32,0.417,5.835
		c0.278,1.517,0.745,2.663,1.402,3.439c0.657,0.776,1.546,1.165,2.67,1.165c1.162,0,2.072-0.403,2.729-1.212
		c0.657-0.809,1.117-1.965,1.383-3.468C202.416,204.819,202.549,202.847,202.549,200.409z"/>
	<path style="fill:#FFFFFF;" d="M220.529,211.815v-17.241c-3.208,2.463-5.368,3.694-6.48,3.694c-0.531,0-1.002-0.21-1.412-0.634
		c-0.41-0.422-0.615-0.912-0.615-1.469c0-0.645,0.202-1.117,0.607-1.42c0.403-0.303,1.117-0.695,2.141-1.176
		c1.529-0.721,2.751-1.477,3.667-2.272c0.915-0.796,1.727-1.688,2.434-2.672c0.707-0.986,1.169-1.593,1.383-1.82
		c0.214-0.228,0.619-0.34,1.214-0.34c0.669,0,1.207,0.259,1.61,0.776c0.403,0.519,0.607,1.233,0.607,2.141v21.694
		c0,2.539-0.865,3.808-2.594,3.808c-0.771,0-1.389-0.259-1.857-0.776C220.763,213.588,220.529,212.825,220.529,211.815z"/>
	<path style="fill:#FFFFFF;" d="M253.855,200.788c0,2.072-0.126,3.853-0.379,5.344c-0.253,1.489-0.721,2.841-1.402,4.055
		c-0.86,1.491-1.97,2.639-3.336,3.45c-1.364,0.809-2.879,1.212-4.548,1.212c-1.92,0-3.641-0.543-5.163-1.629
		s-2.669-2.589-3.439-4.51c-0.391-1.046-0.679-2.207-0.862-3.477c-0.183-1.269-0.274-2.643-0.274-4.122
		c0-1.905,0.102-3.625,0.303-5.153c0.202-1.527,0.517-2.841,0.946-3.941c0.746-1.819,1.829-3.205,3.25-4.158
		c1.421-0.955,3.117-1.431,5.087-1.431c1.302,0,2.482,0.212,3.543,0.634c1.062,0.424,1.993,1.041,2.794,1.857
		c0.802,0.815,1.481,1.822,2.038,3.022C253.376,194.024,253.855,196.973,253.855,200.788z M248.665,200.409
		c0-2.312-0.14-4.203-0.417-5.675c-0.278-1.472-0.745-2.582-1.402-3.336c-0.657-0.752-1.567-1.126-2.729-1.126
		c-1.667,0-2.825,0.84-3.477,2.52c-0.652,1.681-0.976,4.27-0.976,7.768c0,2.376,0.14,4.32,0.417,5.835
		c0.278,1.517,0.745,2.663,1.402,3.439c0.657,0.776,1.546,1.165,2.67,1.165c1.162,0,2.072-0.403,2.729-1.212
		c0.657-0.809,1.117-1.965,1.383-3.468C248.532,204.819,248.665,202.847,248.665,200.409z"/>
</g>
<g>
	<path style="fill:#D0D1D3;" d="M276.914,200.788c0,2.072-0.126,3.853-0.379,5.344c-0.253,1.489-0.721,2.841-1.402,4.055
		c-0.86,1.491-1.97,2.639-3.336,3.45c-1.364,0.809-2.879,1.212-4.548,1.212c-1.92,0-3.641-0.543-5.163-1.629
		c-1.522-1.086-2.669-2.589-3.439-4.51c-0.391-1.046-0.679-2.207-0.862-3.477c-0.183-1.269-0.274-2.643-0.274-4.122
		c0-1.905,0.102-3.625,0.303-5.153c0.202-1.527,0.517-2.841,0.946-3.941c0.746-1.819,1.829-3.205,3.25-4.158
		c1.421-0.955,3.117-1.431,5.087-1.431c1.302,0,2.482,0.212,3.543,0.634c1.062,0.424,1.993,1.041,2.794,1.857
		s1.481,1.822,2.038,3.022C276.435,194.024,276.914,196.973,276.914,200.788z M271.724,200.409c0-2.312-0.14-4.203-0.417-5.675
		c-0.278-1.472-0.745-2.582-1.402-3.336c-0.657-0.752-1.567-1.126-2.729-1.126c-1.667,0-2.826,0.84-3.477,2.52
		c-0.652,1.681-0.976,4.27-0.976,7.768c0,2.376,0.14,4.32,0.417,5.835c0.278,1.517,0.745,2.663,1.402,3.439
		c0.657,0.776,1.546,1.165,2.67,1.165c1.162,0,2.072-0.403,2.729-1.212c0.657-0.809,1.117-1.965,1.383-3.468
		C271.591,204.819,271.724,202.847,271.724,200.409z"/>
	<path style="fill:#D0D1D3;" d="M299.973,200.788c0,2.072-0.126,3.853-0.379,5.344c-0.253,1.489-0.721,2.841-1.402,4.055
		c-0.86,1.491-1.97,2.639-3.336,3.45c-1.364,0.809-2.879,1.212-4.548,1.212c-1.92,0-3.641-0.543-5.163-1.629
		c-1.522-1.086-2.669-2.589-3.439-4.51c-0.391-1.046-0.679-2.207-0.862-3.477c-0.183-1.269-0.274-2.643-0.274-4.122
		c0-1.905,0.102-3.625,0.303-5.153c0.202-1.527,0.517-2.841,0.946-3.941c0.746-1.819,1.829-3.205,3.25-4.158
		c1.421-0.955,3.117-1.431,5.087-1.431c1.302,0,2.482,0.212,3.543,0.634c1.062,0.424,1.993,1.041,2.794,1.857
		c0.802,0.815,1.481,1.822,2.038,3.022C299.492,194.024,299.973,196.973,299.973,200.788z M294.781,200.409
		c0-2.312-0.14-4.203-0.417-5.675c-0.278-1.472-0.745-2.582-1.402-3.336c-0.657-0.752-1.567-1.126-2.729-1.126
		c-1.667,0-2.826,0.84-3.477,2.52c-0.652,1.681-0.976,4.27-0.976,7.768c0,2.376,0.14,4.32,0.417,5.835
		c0.278,1.517,0.745,2.663,1.402,3.439c0.657,0.776,1.546,1.165,2.67,1.165c1.162,0,2.072-0.403,2.729-1.212
		c0.657-0.809,1.117-1.965,1.383-3.468C294.648,204.819,294.781,202.847,294.781,200.409z"/>
	<path style="fill:#D0D1D3;" d="M312.761,211.815v-17.241c-3.208,2.463-5.368,3.694-6.48,3.694c-0.531,0-1.002-0.21-1.412-0.634
		c-0.41-0.422-0.615-0.912-0.615-1.469c0-0.645,0.202-1.117,0.607-1.42c0.403-0.303,1.117-0.695,2.141-1.176
		c1.529-0.721,2.751-1.477,3.667-2.272c0.915-0.796,1.727-1.688,2.434-2.672c0.707-0.986,1.169-1.593,1.383-1.82
		c0.214-0.228,0.619-0.34,1.214-0.34c0.669,0,1.207,0.259,1.61,0.776c0.403,0.519,0.607,1.233,0.607,2.141v21.694
		c0,2.539-0.865,3.808-2.595,3.808c-0.771,0-1.389-0.259-1.857-0.776C312.996,213.588,312.761,212.825,312.761,211.815z
		 M312.761,211.815v-17.241"/>
	<path style="fill:#D0D1D3;" d="M346.09,200.788c0,2.072-0.126,3.853-0.379,5.344c-0.253,1.489-0.721,2.841-1.402,4.055
		c-0.86,1.491-1.97,2.639-3.336,3.45c-1.364,0.809-2.879,1.212-4.548,1.212c-1.92,0-3.641-0.543-5.163-1.629
		c-1.522-1.086-2.669-2.589-3.439-4.51c-0.391-1.046-0.679-2.207-0.862-3.477c-0.183-1.269-0.274-2.643-0.274-4.122
		c0-1.905,0.102-3.625,0.303-5.153c0.202-1.527,0.517-2.841,0.946-3.941c0.746-1.819,1.829-3.205,3.25-4.158
		c1.421-0.955,3.117-1.431,5.087-1.431c1.302,0,2.482,0.212,3.543,0.634c1.062,0.424,1.993,1.041,2.794,1.857
		c0.802,0.815,1.481,1.822,2.038,3.022C345.609,194.024,346.09,196.973,346.09,200.788z M340.973,213.635
		c-1.364,0.809-2.879,1.212-4.548,1.212c-1.92,0-3.641-0.543-5.163-1.629 M340.897,200.409c0-2.312-0.14-4.203-0.417-5.675
		c-0.278-1.472-0.745-2.582-1.402-3.336c-0.657-0.752-1.567-1.126-2.729-1.126c-1.667,0-2.826,0.84-3.477,2.52
		c-0.652,1.681-0.976,4.27-0.976,7.768c0,2.376,0.14,4.32,0.417,5.835c0.278,1.517,0.745,2.663,1.402,3.439
		c0.657,0.776,1.546,1.165,2.67,1.165c1.162,0,2.072-0.403,2.729-1.212c0.657-0.809,1.117-1.965,1.383-3.468
		C340.764,204.819,340.897,202.847,340.897,200.409z"/>
	<path style="fill:#D0D1D3;" d="M358.878,211.815v-17.241c-3.208,2.463-5.368,3.694-6.48,3.694c-0.531,0-1.002-0.21-1.412-0.634
		c-0.41-0.422-0.615-0.912-0.615-1.469c0-0.645,0.202-1.117,0.607-1.42c0.403-0.303,1.117-0.695,2.141-1.176
		c1.529-0.721,2.751-1.477,3.667-2.272c0.915-0.796,1.727-1.688,2.434-2.672c0.707-0.986,1.169-1.593,1.383-1.82
		c0.214-0.228,0.619-0.34,1.214-0.34c0.669,0,1.207,0.259,1.61,0.776c0.403,0.519,0.607,1.233,0.607,2.141v21.694
		c0,2.539-0.865,3.808-2.595,3.808c-0.771,0-1.389-0.259-1.857-0.776C359.112,213.588,358.878,212.825,358.878,211.815z
		 M358.878,211.815v-17.241"/>
</g>
<g>
	<path style="fill:#FFFFFF;" d="M151.354,258.379v-17.241c-3.208,2.463-5.368,3.694-6.48,3.694c-0.531,0-1.002-0.21-1.412-0.634
		c-0.41-0.422-0.615-0.912-0.615-1.469c0-0.645,0.202-1.117,0.607-1.421c0.403-0.303,1.117-0.695,2.141-1.176
		c1.529-0.721,2.751-1.477,3.667-2.272c0.915-0.796,1.727-1.688,2.434-2.672c0.707-0.986,1.169-1.593,1.383-1.82
		c0.214-0.228,0.619-0.34,1.214-0.34c0.669,0,1.207,0.259,1.61,0.776c0.403,0.519,0.607,1.233,0.607,2.141v21.694
		c0,2.539-0.865,3.808-2.594,3.808c-0.771,0-1.389-0.259-1.857-0.776C151.588,260.153,151.354,259.389,151.354,258.379z"/>
	<path style="fill:#FFFFFF;" d="M174.413,258.379v-17.241c-3.208,2.463-5.368,3.694-6.48,3.694c-0.531,0-1.002-0.21-1.412-0.634
		c-0.41-0.422-0.615-0.912-0.615-1.469c0-0.645,0.202-1.117,0.607-1.421c0.403-0.303,1.117-0.695,2.141-1.176
		c1.529-0.721,2.751-1.477,3.667-2.272c0.915-0.796,1.727-1.688,2.434-2.672c0.707-0.986,1.169-1.593,1.383-1.82
		c0.214-0.228,0.619-0.34,1.214-0.34c0.669,0,1.207,0.259,1.61,0.776c0.403,0.519,0.607,1.233,0.607,2.141v21.694
		c0,2.539-0.865,3.808-2.594,3.808c-0.771,0-1.389-0.259-1.857-0.776C174.647,260.153,174.413,259.389,174.413,258.379z"/>
	<path style="fill:#FFFFFF;" d="M207.739,247.351c0,2.072-0.126,3.853-0.379,5.344c-0.253,1.489-0.721,2.841-1.402,4.055
		c-0.86,1.491-1.97,2.639-3.336,3.45c-1.364,0.809-2.879,1.212-4.548,1.212c-1.92,0-3.641-0.543-5.163-1.629
		c-1.522-1.086-2.669-2.589-3.439-4.51c-0.391-1.046-0.679-2.207-0.862-3.477c-0.183-1.269-0.274-2.643-0.274-4.122
		c0-1.905,0.102-3.625,0.303-5.153c0.202-1.527,0.517-2.841,0.946-3.941c0.746-1.819,1.829-3.205,3.25-4.158
		c1.421-0.955,3.117-1.431,5.087-1.431c1.302,0,2.482,0.212,3.543,0.634c1.062,0.424,1.993,1.041,2.794,1.857
		c0.802,0.815,1.481,1.822,2.038,3.022C207.26,240.588,207.739,243.538,207.739,247.351z M202.549,246.974
		c0-2.312-0.14-4.203-0.417-5.675c-0.278-1.472-0.745-2.582-1.402-3.336c-0.657-0.752-1.567-1.126-2.729-1.126
		c-1.667,0-2.825,0.84-3.477,2.52c-0.652,1.681-0.976,4.27-0.976,7.768c0,2.376,0.14,4.32,0.417,5.835
		c0.278,1.517,0.745,2.663,1.402,3.439c0.657,0.776,1.546,1.165,2.67,1.165c1.162,0,2.072-0.403,2.729-1.212
		c0.657-0.808,1.117-1.965,1.383-3.468C202.416,251.382,202.549,249.411,202.549,246.974z"/>
	<path style="fill:#FFFFFF;" d="M220.529,258.379v-17.241c-3.208,2.463-5.368,3.694-6.48,3.694c-0.531,0-1.002-0.21-1.412-0.634
		c-0.41-0.422-0.615-0.912-0.615-1.469c0-0.645,0.202-1.117,0.607-1.421c0.403-0.303,1.117-0.695,2.141-1.176
		c1.529-0.721,2.751-1.477,3.667-2.272c0.915-0.796,1.727-1.688,2.434-2.672c0.707-0.986,1.169-1.593,1.383-1.82
		c0.214-0.228,0.619-0.34,1.214-0.34c0.669,0,1.207,0.259,1.61,0.776c0.403,0.519,0.607,1.233,0.607,2.141v21.694
		c0,2.539-0.865,3.808-2.594,3.808c-0.771,0-1.389-0.259-1.857-0.776C220.763,260.153,220.529,259.389,220.529,258.379z"/>
	<path style="fill:#FFFFFF;" d="M253.855,247.351c0,2.072-0.126,3.853-0.379,5.344c-0.253,1.489-0.721,2.841-1.402,4.055
		c-0.86,1.491-1.97,2.639-3.336,3.45c-1.364,0.809-2.879,1.212-4.548,1.212c-1.92,0-3.641-0.543-5.163-1.629
		c-1.522-1.086-2.669-2.589-3.439-4.51c-0.391-1.046-0.679-2.207-0.862-3.477c-0.183-1.269-0.274-2.643-0.274-4.122
		c0-1.905,0.102-3.625,0.303-5.153c0.202-1.527,0.517-2.841,0.946-3.941c0.746-1.819,1.829-3.205,3.25-4.158
		c1.421-0.955,3.117-1.431,5.087-1.431c1.302,0,2.482,0.212,3.543,0.634c1.062,0.424,1.993,1.041,2.794,1.857
		c0.802,0.815,1.481,1.822,2.038,3.022C253.376,240.588,253.855,243.538,253.855,247.351z M248.665,246.974
		c0-2.312-0.14-4.203-0.417-5.675c-0.278-1.472-0.745-2.582-1.402-3.336c-0.657-0.752-1.567-1.126-2.729-1.126
		c-1.667,0-2.825,0.84-3.477,2.52c-0.652,1.681-0.976,4.27-0.976,7.768c0,2.376,0.14,4.32,0.417,5.835
		c0.278,1.517,0.745,2.663,1.402,3.439s1.546,1.165,2.67,1.165c1.162,0,2.072-0.403,2.729-1.212
		c0.657-0.808,1.117-1.965,1.383-3.468C248.532,251.382,248.665,249.411,248.665,246.974z"/>
</g>
<g>
	<path style="fill:#D0D1D3;" d="M266.645,258.379v-17.241c-3.208,2.463-5.368,3.694-6.48,3.694c-0.531,0-1.002-0.21-1.412-0.634
		c-0.41-0.422-0.615-0.912-0.615-1.469c0-0.645,0.202-1.117,0.607-1.421c0.403-0.303,1.117-0.695,2.141-1.176
		c1.529-0.721,2.751-1.477,3.667-2.272c0.915-0.796,1.727-1.688,2.434-2.672c0.707-0.986,1.169-1.593,1.383-1.82
		c0.214-0.228,0.619-0.34,1.214-0.34c0.669,0,1.207,0.259,1.61,0.776c0.403,0.519,0.607,1.233,0.607,2.141v21.694
		c0,2.539-0.865,3.808-2.594,3.808c-0.771,0-1.389-0.259-1.857-0.776C266.88,260.153,266.645,259.389,266.645,258.379z"/>
	<path style="fill:#D0D1D3;" d="M299.973,247.351c0,2.072-0.126,3.853-0.379,5.344c-0.253,1.489-0.721,2.841-1.402,4.055
		c-0.86,1.491-1.97,2.639-3.336,3.45c-1.364,0.809-2.879,1.212-4.548,1.212c-1.92,0-3.641-0.543-5.163-1.629
		c-1.522-1.086-2.669-2.589-3.439-4.51c-0.391-1.046-0.679-2.207-0.862-3.477c-0.183-1.269-0.274-2.643-0.274-4.122
		c0-1.905,0.102-3.625,0.303-5.153c0.202-1.527,0.517-2.841,0.946-3.941c0.746-1.819,1.829-3.205,3.25-4.158
		c1.421-0.955,3.117-1.431,5.087-1.431c1.302,0,2.482,0.212,3.543,0.634c1.062,0.424,1.993,1.041,2.794,1.857
		c0.802,0.815,1.481,1.822,2.038,3.022C299.492,240.588,299.973,243.538,299.973,247.351z M294.781,246.974
		c0-2.312-0.14-4.203-0.417-5.675c-0.278-1.472-0.745-2.582-1.402-3.336c-0.657-0.752-1.567-1.126-2.729-1.126
		c-1.667,0-2.826,0.84-3.477,2.52s-0.976,4.27-0.976,7.768c0,2.376,0.14,4.32,0.417,5.835c0.278,1.517,0.745,2.663,1.402,3.439
		s1.546,1.165,2.67,1.165c1.162,0,2.072-0.403,2.729-1.212c0.657-0.808,1.117-1.965,1.383-3.468
		C294.648,251.382,294.781,249.411,294.781,246.974z M290.271,257.564c1.162,0,2.072-0.403,2.729-1.212"/>
	<path style="fill:#D0D1D3;" d="M312.761,258.379v-17.241c-3.208,2.463-5.368,3.694-6.48,3.694c-0.531,0-1.002-0.21-1.412-0.634
		c-0.41-0.422-0.615-0.912-0.615-1.469c0-0.645,0.202-1.117,0.607-1.421c0.403-0.303,1.117-0.695,2.141-1.176
		c1.529-0.721,2.751-1.477,3.667-2.272c0.915-0.796,1.727-1.688,2.434-2.672c0.707-0.986,1.169-1.593,1.383-1.82
		c0.214-0.228,0.619-0.34,1.214-0.34c0.669,0,1.207,0.259,1.61,0.776c0.403,0.519,0.607,1.233,0.607,2.141v21.694
		c0,2.539-0.865,3.808-2.595,3.808c-0.771,0-1.389-0.259-1.857-0.776C312.996,260.153,312.761,259.389,312.761,258.379z"/>
	<path style="fill:#D0D1D3;" d="M335.82,258.379v-17.241c-3.208,2.463-5.368,3.694-6.48,3.694c-0.531,0-1.002-0.21-1.412-0.634
		c-0.41-0.422-0.615-0.912-0.615-1.469c0-0.645,0.202-1.117,0.607-1.421c0.403-0.303,1.117-0.695,2.141-1.176
		c1.529-0.721,2.751-1.477,3.667-2.272c0.915-0.796,1.727-1.688,2.434-2.672c0.707-0.986,1.169-1.593,1.383-1.82
		c0.214-0.228,0.619-0.34,1.214-0.34c0.669,0,1.207,0.259,1.61,0.776c0.403,0.519,0.607,1.233,0.607,2.141v21.694
		c0,2.539-0.865,3.808-2.594,3.808c-0.771,0-1.389-0.259-1.857-0.776C336.055,260.153,335.82,259.389,335.82,258.379z
		 M335.82,258.379v-17.241"/>
	<path style="fill:#D0D1D3;" d="M369.147,247.351c0,2.072-0.126,3.853-0.379,5.344c-0.253,1.489-0.721,2.841-1.402,4.055
		c-0.86,1.491-1.97,2.639-3.336,3.45c-1.364,0.809-2.879,1.212-4.548,1.212c-1.92,0-3.641-0.543-5.163-1.629
		c-1.522-1.086-2.669-2.589-3.439-4.51c-0.391-1.046-0.679-2.207-0.862-3.477c-0.183-1.269-0.274-2.643-0.274-4.122
		c0-1.905,0.102-3.625,0.303-5.153c0.202-1.527,0.517-2.841,0.946-3.941c0.746-1.819,1.829-3.205,3.25-4.158
		c1.421-0.955,3.117-1.431,5.087-1.431c1.302,0,2.482,0.212,3.543,0.634c1.062,0.424,1.993,1.041,2.794,1.857
		c0.802,0.815,1.481,1.822,2.038,3.022C368.666,240.588,369.147,243.538,369.147,247.351z M354.245,234.42
		c1.421-0.955,3.117-1.431,5.087-1.431 M363.956,246.974c0-2.312-0.14-4.203-0.417-5.675c-0.278-1.472-0.745-2.582-1.402-3.336
		c-0.657-0.752-1.567-1.126-2.729-1.126c-1.667,0-2.826,0.84-3.477,2.52s-0.976,4.27-0.976,7.768c0,2.376,0.14,4.32,0.417,5.835
		c0.278,1.517,0.745,2.663,1.402,3.439s1.546,1.165,2.67,1.165c1.162,0,2.072-0.403,2.729-1.212
		c0.657-0.808,1.117-1.965,1.383-3.468C363.823,251.382,363.956,249.411,363.956,246.974z"/>
</g>
<g>
	<path style="fill:#FFFFFF;" d="M151.354,304.943v-17.241c-3.208,2.463-5.368,3.694-6.48,3.694c-0.531,0-1.002-0.21-1.412-0.634
		c-0.41-0.422-0.615-0.912-0.615-1.469c0-0.645,0.202-1.117,0.607-1.421c0.403-0.303,1.117-0.695,2.141-1.176
		c1.529-0.721,2.751-1.477,3.667-2.272c0.915-0.796,1.727-1.688,2.434-2.672c0.707-0.986,1.169-1.593,1.383-1.82
		c0.214-0.228,0.619-0.34,1.214-0.34c0.669,0,1.207,0.259,1.61,0.776c0.403,0.519,0.607,1.233,0.607,2.141v21.694
		c0,2.539-0.865,3.808-2.594,3.808c-0.771,0-1.389-0.259-1.857-0.776C151.588,306.717,151.354,305.954,151.354,304.943z"/>
	<path style="fill:#FFFFFF;" d="M184.682,293.916c0,2.072-0.126,3.853-0.379,5.344c-0.253,1.489-0.721,2.841-1.402,4.055
		c-0.86,1.491-1.97,2.639-3.336,3.45c-1.364,0.809-2.879,1.212-4.548,1.212c-1.92,0-3.641-0.543-5.163-1.629
		c-1.522-1.086-2.669-2.589-3.439-4.51c-0.391-1.046-0.679-2.207-0.862-3.477c-0.183-1.269-0.274-2.643-0.274-4.122
		c0-1.905,0.102-3.625,0.303-5.153c0.202-1.527,0.517-2.841,0.946-3.941c0.746-1.819,1.829-3.205,3.25-4.158
		c1.42-0.955,3.117-1.431,5.087-1.431c1.302,0,2.482,0.212,3.543,0.634c1.062,0.424,1.993,1.041,2.794,1.857
		s1.481,1.822,2.038,3.022C184.201,287.151,184.682,290.101,184.682,293.916z M179.49,293.536c0-2.312-0.14-4.203-0.417-5.675
		c-0.278-1.472-0.745-2.582-1.402-3.336c-0.657-0.752-1.567-1.126-2.729-1.126c-1.667,0-2.825,0.84-3.477,2.52
		c-0.652,1.681-0.976,4.27-0.976,7.768c0,2.376,0.14,4.32,0.417,5.835c0.278,1.517,0.745,2.663,1.402,3.439
		c0.657,0.776,1.546,1.165,2.67,1.165c1.162,0,2.072-0.403,2.729-1.212c0.657-0.809,1.117-1.965,1.383-3.468
		C179.359,297.946,179.49,295.974,179.49,293.536z"/>
	<path style="fill:#FFFFFF;" d="M207.739,293.916c0,2.072-0.126,3.853-0.379,5.344c-0.253,1.489-0.721,2.841-1.402,4.055
		c-0.86,1.491-1.97,2.639-3.336,3.45c-1.364,0.809-2.879,1.212-4.548,1.212c-1.92,0-3.641-0.543-5.163-1.629
		c-1.522-1.086-2.669-2.589-3.439-4.51c-0.391-1.046-0.679-2.207-0.862-3.477c-0.183-1.269-0.274-2.643-0.274-4.122
		c0-1.905,0.102-3.625,0.303-5.153c0.202-1.527,0.517-2.841,0.946-3.941c0.746-1.819,1.829-3.205,3.25-4.158
		c1.421-0.955,3.117-1.431,5.087-1.431c1.302,0,2.482,0.212,3.543,0.634c1.062,0.424,1.993,1.041,2.794,1.857
		c0.802,0.815,1.481,1.822,2.038,3.022C207.26,287.151,207.739,290.101,207.739,293.916z M202.549,293.536
		c0-2.312-0.14-4.203-0.417-5.675c-0.278-1.472-0.745-2.582-1.402-3.336c-0.657-0.752-1.567-1.126-2.729-1.126
		c-1.667,0-2.825,0.84-3.477,2.52c-0.652,1.681-0.976,4.27-0.976,7.768c0,2.376,0.14,4.32,0.417,5.835
		c0.278,1.517,0.745,2.663,1.402,3.439c0.657,0.776,1.546,1.165,2.67,1.165c1.162,0,2.072-0.403,2.729-1.212
		c0.657-0.809,1.117-1.965,1.383-3.468C202.416,297.946,202.549,295.974,202.549,293.536z"/>
	<path style="fill:#FFFFFF;" d="M220.529,304.943v-17.241c-3.208,2.463-5.368,3.694-6.48,3.694c-0.531,0-1.002-0.21-1.412-0.634
		c-0.41-0.422-0.615-0.912-0.615-1.469c0-0.645,0.202-1.117,0.607-1.421c0.403-0.303,1.117-0.695,2.141-1.176
		c1.529-0.721,2.751-1.477,3.667-2.272c0.915-0.796,1.727-1.688,2.434-2.672c0.707-0.986,1.169-1.593,1.383-1.82
		c0.214-0.228,0.619-0.34,1.214-0.34c0.669,0,1.207,0.259,1.61,0.776c0.403,0.519,0.607,1.233,0.607,2.141v21.694
		c0,2.539-0.865,3.808-2.594,3.808c-0.771,0-1.389-0.259-1.857-0.776C220.763,306.717,220.529,305.954,220.529,304.943z"/>
	<path style="fill:#FFFFFF;" d="M253.855,293.916c0,2.072-0.126,3.853-0.379,5.344c-0.253,1.489-0.721,2.841-1.402,4.055
		c-0.86,1.491-1.97,2.639-3.336,3.45c-1.364,0.809-2.879,1.212-4.548,1.212c-1.92,0-3.641-0.543-5.163-1.629
		c-1.522-1.086-2.669-2.589-3.439-4.51c-0.391-1.046-0.679-2.207-0.862-3.477c-0.183-1.269-0.274-2.643-0.274-4.122
		c0-1.905,0.102-3.625,0.303-5.153c0.202-1.527,0.517-2.841,0.946-3.941c0.746-1.819,1.829-3.205,3.25-4.158
		c1.421-0.955,3.117-1.431,5.087-1.431c1.302,0,2.482,0.212,3.543,0.634c1.062,0.424,1.993,1.041,2.794,1.857
		c0.802,0.815,1.481,1.822,2.038,3.022C253.376,287.151,253.855,290.101,253.855,293.916z M248.665,293.536
		c0-2.312-0.14-4.203-0.417-5.675s-0.745-2.582-1.402-3.336c-0.657-0.752-1.567-1.126-2.729-1.126c-1.667,0-2.825,0.84-3.477,2.52
		c-0.652,1.681-0.976,4.27-0.976,7.768c0,2.376,0.14,4.32,0.417,5.835c0.278,1.517,0.745,2.663,1.402,3.439s1.546,1.165,2.67,1.165
		c1.162,0,2.072-0.403,2.729-1.212c0.657-0.809,1.117-1.965,1.383-3.468C248.532,297.946,248.665,295.974,248.665,293.536z"/>
</g>
<g>
	<path style="fill:#D0D1D3;" d="M266.645,304.943v-17.241c-3.208,2.463-5.368,3.694-6.48,3.694c-0.531,0-1.002-0.21-1.412-0.634
		c-0.41-0.422-0.615-0.912-0.615-1.469c0-0.645,0.202-1.117,0.607-1.421c0.403-0.303,1.117-0.695,2.141-1.176
		c1.529-0.721,2.751-1.477,3.667-2.272c0.915-0.796,1.727-1.688,2.434-2.672c0.707-0.986,1.169-1.593,1.383-1.82
		c0.214-0.228,0.619-0.34,1.214-0.34c0.669,0,1.207,0.259,1.61,0.776c0.403,0.519,0.607,1.233,0.607,2.141v21.694
		c0,2.539-0.865,3.808-2.594,3.808c-0.771,0-1.389-0.259-1.857-0.776C266.88,306.717,266.645,305.954,266.645,304.943z
		 M266.645,304.943v-17.241c-3.208,2.463-5.368,3.694-6.48,3.694c-0.531,0-1.002-0.21-1.412-0.634
		c-0.41-0.422-0.615-0.912-0.615-1.469c0-0.645,0.202-1.117,0.607-1.421c0.403-0.303,1.117-0.695,2.141-1.176
		c1.529-0.721,2.751-1.477,3.667-2.272c0.915-0.796,1.727-1.688,2.434-2.672c0.707-0.986,1.169-1.593,1.383-1.82
		c0.214-0.228,0.619-0.34,1.214-0.34c0.669,0,1.207,0.259,1.61,0.776c0.403,0.519,0.607,1.233,0.607,2.141v21.694
		c0,2.539-0.865,3.808-2.594,3.808c-0.771,0-1.389-0.259-1.857-0.776C266.88,306.717,266.645,305.954,266.645,304.943z"/>
	<path style="fill:#D0D1D3;" d="M299.973,293.916c0,2.072-0.126,3.853-0.379,5.344c-0.253,1.489-0.721,2.841-1.402,4.055
		c-0.86,1.491-1.97,2.639-3.336,3.45c-1.364,0.809-2.879,1.212-4.548,1.212c-1.92,0-3.641-0.543-5.163-1.629
		c-1.522-1.086-2.669-2.589-3.439-4.51c-0.391-1.046-0.679-2.207-0.862-3.477c-0.183-1.269-0.274-2.643-0.274-4.122
		c0-1.905,0.102-3.625,0.303-5.153c0.202-1.527,0.517-2.841,0.946-3.941c0.746-1.819,1.829-3.205,3.25-4.158
		c1.421-0.955,3.117-1.431,5.087-1.431c1.302,0,2.482,0.212,3.543,0.634c1.062,0.424,1.993,1.041,2.794,1.857
		c0.802,0.815,1.481,1.822,2.038,3.022C299.492,287.151,299.973,290.101,299.973,293.916z M294.781,293.536
		c0-2.312-0.14-4.203-0.417-5.675c-0.278-1.472-0.745-2.582-1.402-3.336c-0.657-0.752-1.567-1.126-2.729-1.126
		c-1.667,0-2.826,0.84-3.477,2.52s-0.976,4.27-0.976,7.768c0,2.376,0.14,4.32,0.417,5.835c0.278,1.517,0.745,2.663,1.402,3.439
		s1.546,1.165,2.67,1.165c1.162,0,2.072-0.403,2.729-1.212c0.657-0.809,1.117-1.965,1.383-3.468
		C294.648,297.946,294.781,295.974,294.781,293.536z"/>
	<path style="fill:#D0D1D3;" d="M312.761,304.943v-17.241c-3.208,2.463-5.368,3.694-6.48,3.694c-0.531,0-1.002-0.21-1.412-0.634
		c-0.41-0.422-0.615-0.912-0.615-1.469c0-0.645,0.202-1.117,0.607-1.421c0.403-0.303,1.117-0.695,2.141-1.176
		c1.529-0.721,2.751-1.477,3.667-2.272c0.915-0.796,1.727-1.688,2.434-2.672c0.707-0.986,1.169-1.593,1.383-1.82
		c0.214-0.228,0.619-0.34,1.214-0.34c0.669,0,1.207,0.259,1.61,0.776c0.403,0.519,0.607,1.233,0.607,2.141v21.694
		c0,2.539-0.865,3.808-2.595,3.808c-0.771,0-1.389-0.259-1.857-0.776C312.996,306.717,312.761,305.954,312.761,304.943z"/>
	<path style="fill:#D0D1D3;" d="M346.09,293.916c0,2.072-0.126,3.853-0.379,5.344c-0.253,1.489-0.721,2.841-1.402,4.055
		c-0.86,1.491-1.97,2.639-3.336,3.45c-1.364,0.809-2.879,1.212-4.548,1.212c-1.92,0-3.641-0.543-5.163-1.629
		c-1.522-1.086-2.669-2.589-3.439-4.51c-0.391-1.046-0.679-2.207-0.862-3.477c-0.183-1.269-0.274-2.643-0.274-4.122
		c0-1.905,0.102-3.625,0.303-5.153c0.202-1.527,0.517-2.841,0.946-3.941c0.746-1.819,1.829-3.205,3.25-4.158
		c1.421-0.955,3.117-1.431,5.087-1.431c1.302,0,2.482,0.212,3.543,0.634c1.062,0.424,1.993,1.041,2.794,1.857
		c0.802,0.815,1.481,1.822,2.038,3.022C345.609,287.151,346.09,290.101,346.09,293.916z M340.897,293.536
		c0-2.312-0.14-4.203-0.417-5.675c-0.278-1.472-0.745-2.582-1.402-3.336c-0.657-0.752-1.567-1.126-2.729-1.126
		c-1.667,0-2.826,0.84-3.477,2.52c-0.652,1.681-0.976,4.27-0.976,7.768c0,2.376,0.14,4.32,0.417,5.835
		c0.278,1.517,0.745,2.663,1.402,3.439s1.546,1.165,2.67,1.165c1.162,0,2.072-0.403,2.729-1.212
		c0.657-0.809,1.117-1.965,1.383-3.468C340.764,297.946,340.897,295.974,340.897,293.536z"/>
</g>
<path style="fill:#FFFFFF;" d="M358.878,304.943v-17.241c-3.208,2.463-5.368,3.694-6.48,3.694c-0.531,0-1.002-0.21-1.412-0.634
	c-0.41-0.422-0.615-0.912-0.615-1.469c0-0.645,0.202-1.117,0.607-1.421c0.403-0.303,1.117-0.695,2.141-1.176
	c1.529-0.721,2.751-1.477,3.667-2.272c0.915-0.796,1.727-1.688,2.434-2.672c0.707-0.986,1.169-1.593,1.383-1.82
	c0.214-0.228,0.619-0.34,1.214-0.34c0.669,0,1.207,0.259,1.61,0.776c0.403,0.519,0.607,1.233,0.607,2.141v21.694
	c0,2.539-0.865,3.808-2.595,3.808c-0.771,0-1.389-0.259-1.857-0.776C359.112,306.717,358.878,305.954,358.878,304.943z"/>
<path style="fill:#D0D1D3;" d="M364.032,304.204c0,2.539-0.865,3.808-2.594,3.808c-0.771,0-1.389-0.259-1.857-0.776
	c-0.467-0.519-0.702-1.283-0.702-2.293v-17.241c-3.208,2.463-5.368,3.694-6.48,3.694c-0.531,0-1.002-0.21-1.412-0.634
	c-0.41-0.422-0.615-0.912-0.615-1.469c0-0.645,0.202-1.117,0.607-1.421c0.403-0.303,1.117-0.695,2.141-1.176
	c1.529-0.721,2.751-1.477,3.667-2.272c0.915-0.796,1.727-1.688,2.434-2.672c0.707-0.986,1.169-1.593,1.383-1.82
	c0.214-0.228,0.619-0.34,1.214-0.34c0.669,0,1.207,0.259,1.61,0.776c0.403,0.519,0.607,1.233,0.607,2.141"/>
<g>
</g>
<g>
</g>
<g>
</g>
<g>
</g>
<g>
</g>
<g>
</g>
<g>
</g>
<g>
</g>
<g>
</g>
<g>
</g>
<g>
</g>
<g>
</g>
<g>
</g>
<g>
</g>
<g>
</g>
</svg>
