<?xml version="1.0" encoding="iso-8859-1"?>
<!-- Generator: Adobe Illustrator 19.0.0, SVG Export Plug-In . SVG Version: 6.00 Build 0)  -->
<svg version="1.1" id="Layer_1" xmlns="http://www.w3.org/2000/svg" xmlns:xlink="http://www.w3.org/1999/xlink" x="0px" y="0px"
	 viewBox="0 0 512 512" style="enable-background:new 0 0 512 512;" xml:space="preserve">
<g>
	<path style="fill:#BDC3C7;" d="M351.458,512H160.543c-4.79,0-8.678-3.888-8.678-8.678v-26.034h208.271v26.034
		C360.136,508.112,356.248,512,351.458,512"/>
	<g>
		<path style="fill:#939FA5;" d="M438.238,512h-26.034c-4.79,0-8.678-3.888-8.678-8.678v-26.034h43.39v26.034
			C446.916,508.112,443.028,512,438.238,512"/>
		<path style="fill:#939FA5;" d="M99.797,512H73.763c-4.79,0-8.678-3.888-8.678-8.678v-26.034h43.39v26.034
			C108.475,508.112,104.587,512,99.797,512"/>
	</g>
	<path style="fill:#E6E7E8;" d="M403.527,151.864l-60.746-39.051c-5.432,17.217-18.189,26.034-34.712,26.034H203.933
		c-15.525,0-30.269-11.976-34.712-26.034l-60.746,39.051c25.314,14.466,26.034,43.39,26.034,43.39c-21.695,190.195,0,256,0,256
		l8.678,26.034h225.627l8.678-26.034c0,0,21.695-65.805,0-256C377.493,195.254,378.213,166.331,403.527,151.864"/>
	<g>
		<path style="fill:#939FA5;" d="M308.069,338.441c0,72.149,8.001,89.991,21.044,138.847h39.702l8.678-26.034
			c0,0,21.695-65.805,0-256c0,0,0.72-28.924,26.034-43.39l-60.746-39.051C321.893,161.879,308.069,243.781,308.069,338.441"/>
		<path style="fill:#939FA5;" d="M203.933,338.441c0-94.659-13.824-176.562-34.712-225.627l-60.746,39.051
			c25.314,14.466,26.034,43.39,26.034,43.39c-21.695,190.195,0,256,0,256l8.678,26.034h39.702
			C195.932,428.431,203.933,410.589,203.933,338.441"/>
	</g>
	<path style="fill:#A5A5A4;" d="M256,86.78c-4.79,0-8.678-3.879-8.678-8.678v-9.78c-14.952-3.853-26.034-17.469-26.034-33.61
		C221.289,15.568,236.857,0,256,0s34.712,15.568,34.712,34.712c0,4.799-3.888,8.678-8.678,8.678c-4.79,0-8.678-3.879-8.678-8.678
		c0-9.572-7.784-17.356-17.356-17.356s-17.356,7.784-17.356,17.356S246.429,52.068,256,52.068c4.79,0,8.678,3.879,8.678,8.678
		v17.356C264.678,82.901,260.791,86.78,256,86.78"/>
	<path style="fill:#805333;" d="M186.577,173.559h138.847c3.376-15.49,7.237-29.844,11.55-42.834L256,88.22l-80.983,42.505
		C179.339,143.724,183.21,158.078,186.577,173.559 M332.462,190.915H179.539c-4.122,0-7.68-2.907-8.504-6.951
		c-4.105-20.133-9.042-38.357-14.674-54.142c-1.397-3.888,0.156-8.227,3.705-10.353l91.466-48.805c2.76-1.649,6.179-1.649,8.938,0
		l91.466,48.805c3.541,2.126,5.094,6.465,3.705,10.353c-5.632,15.768-10.57,33.992-14.674,54.142
		C340.142,188.008,336.584,190.915,332.462,190.915"/>
	<g>
		<path style="fill:#BDC3C7;" d="M402.629,151.266l0.885,0.59l0.009,0.009c-25.305,14.466-26.034,43.39-26.034,43.39
			c0.009,0.078,0.017,0.148,0.026,0.226c7.689,67.436,9.91,110.158,9.58,142.761c0.312,36.257-1.545,62.542-3.706,80.61
			c8.782,19.543,16.67,58.437,16.67,58.437h52.068C467.515,310.863,428.134,152.759,402.629,151.266"/>
		<path style="fill:#BDC3C7;" d="M124.904,338.277c-0.33-32.638,1.892-75.429,9.607-143.022c0,0-0.729-28.924-26.034-43.39
			l0.894-0.599c-25.505,1.493-64.885,159.596-49.499,326.023h52.068c0,0,7.888-38.895,16.67-58.437
			C126.449,400.784,124.592,374.507,124.904,338.277"/>
		<path style="fill:#BDC3C7;" d="M308.069,338.441c0,3.029,0.035,5.832,0.061,8.678h78.996c0.043-38.053-2.334-87.899-9.633-151.864
			c0,0,0.72-28.924,26.034-43.39l-60.746-39.051C321.893,161.879,308.069,243.781,308.069,338.441"/>
		<path style="fill:#BDC3C7;" d="M108.476,151.864c25.314,14.466,26.034,43.39,26.034,43.39
			c-7.298,63.965-9.676,113.812-9.633,151.864h78.996c0.026-2.846,0.061-5.649,0.061-8.678c0-94.659-13.824-176.562-34.712-225.627
			L108.476,151.864z"/>
	</g>
	<g>
		<path style="fill:#E6E7E8;" d="M360.136,407.864c-2.222,0-4.443-0.85-6.135-2.543l-17.356-17.356
			c-3.393-3.393-3.393-8.878,0-12.271c3.393-3.393,8.878-3.393,12.271,0l17.356,17.356c3.393,3.393,3.393,8.878,0,12.271
			C364.579,407.014,362.358,407.864,360.136,407.864"/>
		<path style="fill:#E6E7E8;" d="M151.865,407.864c-2.222,0-4.443-0.85-6.135-2.543c-3.393-3.393-3.393-8.878,0-12.271
			l17.356-17.356c3.393-3.393,8.878-3.393,12.271,0c3.393,3.393,3.393,8.878,0,12.271L158,405.322
			C156.308,407.014,154.086,407.864,151.865,407.864"/>
	</g>
	<g>
		<path style="fill:#939FA5;" d="M402.629,151.266l0.885,0.59l0.009,0.009c-25.305,14.466-26.034,43.39-26.034,43.39
			c0.009,0.078,0.017,0.148,0.026,0.226c7.689,67.436,9.91,110.158,9.58,142.761c0.026,3.063,0.017,5.953,0.017,8.878h66.82
			C447.217,236.866,421.244,152.351,402.629,151.266"/>
		<path style="fill:#939FA5;" d="M108.475,151.864l0.894-0.599c-18.606,1.085-44.587,85.599-51.304,195.853h66.829
			c-0.009-2.916-0.017-5.788,0.009-8.843c-0.33-32.638,1.9-75.429,9.606-143.022C134.509,195.254,133.789,166.331,108.475,151.864"
			/>
	</g>
</g>
<g>
</g>
<g>
</g>
<g>
</g>
<g>
</g>
<g>
</g>
<g>
</g>
<g>
</g>
<g>
</g>
<g>
</g>
<g>
</g>
<g>
</g>
<g>
</g>
<g>
</g>
<g>
</g>
<g>
</g>
</svg>
