<?xml version="1.0" encoding="iso-8859-1"?>
<!-- Generator: Adobe Illustrator 19.0.0, SVG Export Plug-In . SVG Version: 6.00 Build 0)  -->
<svg version="1.1" id="Layer_1" xmlns="http://www.w3.org/2000/svg" xmlns:xlink="http://www.w3.org/1999/xlink" x="0px" y="0px"
	 viewBox="0 0 482.204 482.204" style="enable-background:new 0 0 482.204 482.204;" xml:space="preserve">
<path style="fill:#E1E6E9;" d="M482.204,415.784h-4.216l-35.539-105.412c-1.205-3.012-7.228-5.421-14.456-5.421H54.533
	c-7.228,0-13.252,2.409-14.456,5.421L5.14,415.182H0.322v15.059l0,0c0,3.614,5.421,6.626,12.649,6.626h455.981
	c7.228,0,12.649-3.012,12.649-6.626l0,0v-14.456H482.204z"/>
<path style="fill:#64798A;" d="M427.992,45.337H54.533c-7.228,0-12.649,5.421-12.649,12.649v215.642
	c0,7.228,5.421,12.649,12.649,12.649h373.459c7.228,0,12.649-5.421,12.649-12.649V57.987
	C440.642,50.758,434.618,45.337,427.992,45.337z"/>
<path style="fill:#EBF0F3;" d="M427.992,290.495H54.533c-7.228,0-13.252,2.409-14.456,5.421L0.322,413.977
	c-1.807,4.819,4.216,8.433,12.649,8.433h455.981c8.433,0,13.854-3.614,12.649-8.433l-39.755-118.061
	C441.244,292.904,434.618,290.495,427.992,290.495z"/>
<g>
	<path style="fill:#E1E6E9;" d="M420.162,300.735H62.364h-0.602l-16.866,57.224c0,0,0,0,0.602,0h391.529h0.602L420.162,300.735
		C420.764,300.735,420.162,300.735,420.162,300.735z"/>
	<path style="fill:#E1E6E9;" d="M309.931,365.789H172.595c-4.819,0-9.035,1.807-9.035,4.216l-3.614,33.129
		c-0.602,3.012,3.614,4.819,9.035,4.819H314.75c5.421,0,9.035-2.409,9.035-4.819l-3.614-33.129
		C318.966,367.596,314.75,365.789,309.931,365.789z"/>
</g>
<path style="fill:#3A556A;" d="M399.682,279.05H82.844c-0.602,0-1.205,0.602-1.205,0.602v16.264c0,0.602,0.602,0.602,1.205,0.602
	h317.44c0.602,0,1.205-0.602,1.205-0.602v-15.661C400.886,279.653,400.284,279.05,399.682,279.05z"/>
<circle style="fill:#2F4859;" cx="241.263" cy="56.782" r="5.421"/>
<circle style="fill:#3A556A;" cx="241.263" cy="56.782" r="2.409"/>
<rect x="65.376" y="68.227" style="fill:#EBF0F3;" width="352.376" height="194.56"/>
<rect x="65.376" y="68.227" style="fill:#3A556A;" width="352.376" height="22.287"/>
<circle style="fill:#FCD462;" cx="361.733" cy="79.671" r="6.024"/>
<circle style="fill:#44C4A1;" cx="381.611" cy="79.671" r="6.024"/>
<circle style="fill:#E56353;" cx="400.886" cy="79.671" r="6.024"/>
<rect x="65.376" y="255.558" style="fill:#E1E6E9;" width="352.376" height="7.831"/>
<g>
	<rect x="94.289" y="114.006" style="fill:#E56353;" width="293.346" height="9.638"/>
	<rect x="94.289" y="226.043" style="fill:#E56353;" width="293.346" height="9.638"/>
</g>
<g>
	<path style="fill:#64798A;" d="M130.43,137.497c4.819,0,9.638,1.205,14.456,3.012s9.035,4.216,12.649,7.831l-4.819,6.626
		c-6.024-6.024-13.252-9.035-21.685-9.035s-15.661,3.012-21.082,8.433c-6.024,5.421-8.433,12.649-8.433,20.48
		s3.012,15.059,9.035,20.48s12.649,8.433,21.082,8.433s15.661-3.012,21.685-9.035l5.421,6.024
		c-7.831,7.831-17.468,11.445-27.106,11.445c-10.842,0-19.275-3.614-27.106-10.842c-7.228-7.228-10.842-16.264-10.842-26.504
		c0-10.24,3.614-19.275,11.445-25.901C110.552,141.111,119.588,137.497,130.43,137.497z"/>
	<path style="fill:#64798A;" d="M202.712,137.497c10.842,0,19.878,3.614,27.106,10.842c7.228,7.228,11.445,15.661,11.445,26.504
		c0,10.24-3.614,19.275-11.445,26.504c-7.228,7.228-16.264,10.842-27.106,10.842c-10.842,0-19.878-3.614-27.106-10.842
		c-7.228-7.228-11.445-16.264-11.445-26.504s3.614-19.275,11.445-26.504C182.232,141.111,191.87,137.497,202.712,137.497z
		 M202.712,145.93c-8.433,0-15.059,3.012-21.082,8.433s-9.035,12.649-9.035,20.48s3.012,15.059,9.035,20.48
		s13.252,8.433,21.082,8.433c8.433,0,15.059-3.012,21.082-8.433s9.035-12.649,9.035-20.48c0-7.831-3.012-15.059-9.035-20.48
		C217.771,148.34,210.543,145.93,202.712,145.93z"/>
	<path style="fill:#64798A;" d="M256.322,138.1h29.515c10.842,0,19.878,3.614,27.106,10.842
		c7.228,7.228,10.842,15.661,10.842,26.504c0,10.24-3.614,19.275-10.842,26.504s-16.264,10.842-27.106,10.842h-29.515V138.1z
		 M264.755,145.93v57.224h21.685c8.433,0,15.059-3.012,21.082-8.433c5.421-5.421,8.433-12.047,8.433-20.48
		s-3.012-15.059-8.433-20.48s-12.649-8.433-21.082-8.433h-21.685V145.93z"/>
	<path style="fill:#64798A;" d="M388.839,145.93h-41.562v24.094h37.346v7.831h-37.346v25.299h42.767v7.831h-51.2V138.1h49.995
		V145.93z"/>
</g>
<g>
</g>
<g>
</g>
<g>
</g>
<g>
</g>
<g>
</g>
<g>
</g>
<g>
</g>
<g>
</g>
<g>
</g>
<g>
</g>
<g>
</g>
<g>
</g>
<g>
</g>
<g>
</g>
<g>
</g>
</svg>
