<?xml version="1.0" encoding="iso-8859-1"?>
<!-- Generator: Adobe Illustrator 19.0.0, SVG Export Plug-In . SVG Version: 6.00 Build 0)  -->
<svg version="1.1" id="Layer_1" xmlns="http://www.w3.org/2000/svg" xmlns:xlink="http://www.w3.org/1999/xlink" x="0px" y="0px"
	 viewBox="0 0 512 512" style="enable-background:new 0 0 512 512;" xml:space="preserve">
<rect x="7.5" y="58.914" style="fill:#FFDC64;" width="497" height="394.17"/>
<rect x="41.776" y="93.19" style="fill:#B4F0FF;" width="428.45" height="325.62"/>
<path style="fill:#FFC850;" d="M279.902,387.937l-75.316-20.541h-68.552l-75.316,20.541c-10.605,2.892-18.045,12.196-18.796,23.033
	l-0.147,7.84h257.069v-6.073C298.845,401.145,291.086,390.987,279.902,387.937z"/>
<path style="fill:#E1A546;" d="M125.017,418.81h90.586c12.056-10.657,20.332-25.5,22.576-42.252l-33.593-9.162h-68.552
	l-33.593,9.162C104.685,393.31,112.961,408.153,125.017,418.81z"/>
<path style="fill:#FAD7A5;" d="M127.466,337.405v29.991c0,23.662,19.182,42.845,42.845,42.845s42.845-19.182,42.845-42.845v-29.991
	H127.466z"/>
<path style="fill:#F0C891;" d="M127.466,366.526c13.056,6.001,27.533,9.439,42.845,9.439s29.788-3.438,42.845-9.439v-29.121h-85.69
	V366.526z"/>
<path style="fill:#FFE1B4;" d="M247.431,238.862v-51.414H93.19v51.414c-9.465,0-17.138,7.673-17.138,17.138
	s7.673,17.138,17.138,17.138c0,42.593,34.528,77.121,77.121,77.121s77.121-34.528,77.121-77.121c9.465,0,17.138-7.673,17.138-17.138
	C264.569,246.534,256.896,238.862,247.431,238.862z"/>
<path style="fill:#FAD098;" d="M136.034,273.138v-85.69H93.19v51.414c-9.465,0-17.138,7.673-17.138,17.138
	s7.673,17.138,17.138,17.138c0,42.593,34.528,77.121,77.121,77.121c7.442,0,14.614-1.111,21.422-3.078
	C159.575,337.889,136.034,308.289,136.034,273.138z"/>
<path style="fill:#D59F63;" d="M227.993,230.706c2.502,6.627,9.586,9.629,16.563,8.405c0.933-0.164,1.893-0.249,2.875-0.249
	c3.138,0,6.04,0.905,8.569,2.377v-53.791c0-12.82-7.121-23.864-17.545-29.743c-1.948-12.267-12.485-21.671-25.3-21.671h-68.552
	c-33.128,0-59.983,26.855-59.983,59.983v45.222c2.529-1.472,5.431-2.377,8.569-2.377c1.102,0,2.176,0.107,3.215,0.312
	c8.345,1.643,16.702-2.97,18.791-11.215l0,0l2.107-8.429c0.931-3.725,4.197-6.382,8.036-6.485
	c15.943-0.43,58.027-2.544,86.723-12.93c5.08-1.839,10.555,1.255,11.444,6.584l3.209,19.251
	C226.988,227.603,227.421,229.192,227.993,230.706z"/>
<path style="fill:#CD915A;" d="M136.034,187.448c0-28.395,23.019-51.414,51.414-51.414h-42.845
	c-33.127,0-59.983,26.855-59.983,59.983v45.222c2.529-1.472,5.431-2.377,8.569-2.377c1.102,0,2.176,0.107,3.214,0.312
	c8.346,1.643,16.702-2.97,18.792-11.215l2.107-8.429c0.931-3.725,4.197-6.381,8.035-6.485c2.813-0.076,6.473-0.209,10.696-0.426
	v-25.171H136.034z"/>
<path style="fill:#785546;" d="M341.69,153.172L341.69,153.172L341.69,153.172L341.69,153.172L341.69,153.172
	c52.058,0,94.259,43.656,94.259,97.509l0,0c0,62.051,8.569,132.671,8.569,132.671s-42.845,26.593-102.828,35.458
	c-59.983-8.864-102.828-35.458-102.828-35.458s8.569-70.62,8.569-132.671l0,0C247.431,196.828,289.632,153.172,341.69,153.172
	L341.69,153.172L341.69,153.172L341.69,153.172L341.69,153.172z"/>
<path style="fill:#64463C;" d="M307.414,241.817v-26.593c0-30.133,20.769-55.23,48.302-60.855c-4.588-0.71-9.246-1.196-14.026-1.196
	h-0.001c-52.058,0-94.259,43.656-94.259,97.509c0,62.051-8.569,132.671-8.569,132.671s42.845,26.593,102.828,35.458V277.275
	L307.414,241.817z"/>
<path style="fill:#E6AF78;" d="M418.811,418.81l-32.072-12.829c-6.506-2.602-10.773-8.904-10.773-15.912v-31.242h-68.552v31.242
	c0,7.008-4.267,13.31-10.773,15.912l-32.072,12.829H418.811z"/>
<path style="fill:#D29B6E;" d="M341.69,401.672c12.368,0,24.171-2.296,35.155-6.298c-0.552-1.689-0.879-3.465-0.879-5.305v-31.242
	h-68.552v31.242c0,1.84-0.326,3.616-0.879,5.305C317.518,399.376,329.322,401.672,341.69,401.672z"/>
<path style="fill:#F0C087;" d="M312.7,234.882c-2.625-1.981-6.355-1.006-7.693,1.999c-4.431,9.956-15.786,27.688-40.438,27.687
	v0.001c-9.465,0-17.138,7.673-17.138,17.138s7.673,17.138,17.138,17.138c0,42.593,34.528,77.121,77.121,77.121
	s77.121-34.528,77.121-77.121C418.81,241.777,349.004,262.272,312.7,234.882z"/>
<path style="fill:#E6AF78;" d="M307.414,298.845v-64.34c-1.002,0.506-1.9,1.24-2.406,2.377
	c-4.431,9.956-15.786,27.688-40.438,27.687v0.001c-9.465,0-17.138,7.673-17.138,17.138s7.673,17.138,17.138,17.138
	c0,42.593,34.528,77.121,77.121,77.121c7.442,0,14.614-1.111,21.422-3.078C330.954,363.596,307.414,333.996,307.414,298.845z"/>
<path d="M170.311,314.914c8.746,0,17.115-4.135,22.963-11.345c2.609-3.217,2.116-7.94-1.101-10.55s-7.94-2.117-10.549,1.101
	c-3.03,3.736-7.047,5.794-11.313,5.794s-8.283-2.058-11.313-5.794c-2.609-3.217-7.333-3.709-10.549-1.101
	c-3.217,2.609-3.71,7.333-1.101,10.55C153.195,310.779,161.564,314.914,170.311,314.914z"/>
<path d="M136.035,272.069c4.142,0,7.5-3.358,7.5-7.5V256c0-4.142-3.358-7.5-7.5-7.5s-7.5,3.358-7.5,7.5v8.569
	C128.535,268.711,131.893,272.069,136.035,272.069z"/>
<path d="M204.586,272.069c4.142,0,7.5-3.358,7.5-7.5V256c0-4.142-3.358-7.5-7.5-7.5s-7.5,3.358-7.5,7.5v8.569
	C197.086,268.711,200.444,272.069,204.586,272.069z"/>
<path d="M364.652,329.276c2.609-3.217,2.117-7.94-1.1-10.55c-3.217-2.608-7.94-2.117-10.549,1.101
	c-3.03,3.736-7.048,5.793-11.313,5.793c-4.265,0-8.283-2.057-11.313-5.793c-2.608-3.217-7.332-3.709-10.549-1.101
	c-3.217,2.609-3.709,7.333-1.1,10.55c5.847,7.209,14.217,11.344,22.962,11.344C350.436,340.62,358.805,336.486,364.652,329.276z"/>
<path d="M307.414,274.207c-4.142,0-7.5,3.357-7.5,7.5v8.569c0,4.142,3.358,7.5,7.5,7.5s7.5-3.358,7.5-7.5v-8.569
	C314.914,277.564,311.556,274.207,307.414,274.207z"/>
<path d="M375.965,297.776c4.142,0,7.5-3.358,7.5-7.5v-8.569c0-4.143-3.358-7.5-7.5-7.5s-7.5,3.357-7.5,7.5v8.569
	C368.465,294.418,371.823,297.776,375.965,297.776z"/>
<path d="M504.5,51.414H7.5c-4.142,0-7.5,3.357-7.5,7.5v394.172c0,4.142,3.358,7.5,7.5,7.5h497c4.142,0,7.5-3.358,7.5-7.5V58.914
	C512,54.771,508.642,51.414,504.5,51.414z M428.597,411.31l-21.824-7.274c10.826-3.236,20.383-7.226,28.559-11.93
	c10.154-5.843,14.458-10.76,14.916-11.301c1.352-1.6,1.972-3.692,1.712-5.771c-0.085-0.681-8.511-68.798-8.511-127.604
	c0-56.109-45.649-101.758-101.759-101.758c-31.552,0-59.795,14.434-78.474,37.046c-1.393-11.963-7.999-22.848-18.102-29.703
	c-3.87-14.381-16.789-24.481-31.958-24.481h-68.552c-37.21,0-67.483,30.273-67.483,67.483v41.329
	c-5.241,4.522-8.569,11.204-8.569,18.653c0,11.06,7.325,20.44,17.378,23.547c1.894,25.179,14.87,47.302,34.036,61.54v20.73
	l-70.689,21.207V100.689h413.448V411.31H428.597z M194.889,411.31c12.549-7.052,21.793-19.316,24.754-33.846l15.125,5.042
	c2.107,2.023,6.318,5.593,13.281,9.6c8.175,4.704,17.732,8.693,28.558,11.929l-21.824,7.275L194.889,411.31L194.889,411.31z
	 M49.276,411.31v-12.626l71.653-21.496c2.9,14.649,12.175,27.026,24.804,34.123L49.276,411.31L49.276,411.31z M93.189,246.362
	h10.962c6.927,0,13.054-4.416,15.245-10.988l4.931-14.793c17.235-0.389,70.664-2.812,100.751-17.855
	c3.705-1.853,5.207-6.357,3.354-10.063c-1.852-3.705-6.357-5.207-10.062-3.354c-32.281,16.14-98.807,16.346-99.475,16.346
	c-3.228,0.001-6.094,2.066-7.114,5.128l-6.616,19.847c-0.146,0.438-0.553,0.731-1.014,0.731H93.189
	c-0.358,0-0.714,0.012-1.069,0.027v-35.372c0-28.939,23.544-52.483,52.483-52.483h68.552c8.956,0,16.48,6.455,17.893,15.347
	c0.359,2.26,1.73,4.233,3.723,5.357c8.468,4.775,13.729,13.669,13.729,23.21v19.135c-5.505,12.51-8.569,26.327-8.569,40.848
	c0,12.17-0.362,24.739-0.935,37.027c-5.425,33.022-34.153,58.301-68.686,58.301c-38.389,0-69.621-31.232-69.621-69.621
	c0-4.142-3.358-7.5-7.5-7.5c-5.314,0-9.638-4.323-9.638-9.638S87.875,246.362,93.189,246.362z M299.914,389.32
	c0,1.682-0.44,3.281-1.218,4.681c-31.513-6.174-46.731-16.57-51.94-20.896c1.139-9.801,4.181-37.458,6.216-69.686
	c1.376,0.738,2.821,1.366,4.337,1.834c0.314,4.18,0.935,8.328,1.857,12.391c4.177,18.407,14.605,35.113,29.363,47.042
	c3.585,2.898,7.399,5.476,11.384,7.733L299.914,389.32L299.914,389.32z M232.474,365.93l-11.818-3.939v-20.885
	c5.839-4.336,11.091-9.413,15.641-15.078C234.91,343.04,233.434,357.262,232.474,365.93z M297.959,353.021
	c-12.148-9.82-20.73-23.563-24.165-38.697c-1.145-5.045-1.726-10.253-1.726-15.479c0-4.142-3.358-7.5-7.5-7.5
	c-5.314,0-9.638-4.323-9.638-9.638s4.323-9.638,9.638-9.638c21.936,0,37.868-19.706,45.154-30.911
	c16.876,10.794,36.126,14.616,53.362,18.037c31.689,6.291,48.226,10.913,48.226,39.65c0,5.226-0.581,10.434-1.726,15.48
	c-3.435,15.134-12.016,28.876-24.165,38.696c-12.5,10.104-27.622,15.445-43.731,15.445
	C325.581,368.466,310.459,363.125,297.959,353.021z M384.684,394.001c-0.778-1.4-1.218-3-1.218-4.681v-16.9
	c3.985-2.258,7.799-4.835,11.384-7.734c14.758-11.93,25.187-28.636,29.363-47.042c1.392-6.134,2.098-12.459,2.098-18.8
	c0-42.391-30.657-48.477-60.305-54.363c-18.865-3.745-38.372-7.618-53.907-20.045c-1.766-1.412-4.075-1.947-6.286-1.466
	c-2.209,0.481-4.085,1.939-5.103,3.958c-4.224,8.384-18.949,30.14-36.142,30.14c-3.458,0-6.751,0.719-9.74,2.011
	c0.066-3.907,0.103-7.798,0.103-11.649c0-47.839,38.92-86.758,86.759-86.758s86.758,38.92,86.758,86.759
	c0,51.719,6.397,110.374,8.175,125.666C431.358,377.469,416.137,387.839,384.684,394.001z M170.311,357.759
	c12.614,0,24.581-2.794,35.345-7.765v17.246c0,0.008,0,0.016,0,0.023v0.133c0,19.489-15.856,35.345-35.345,35.345
	c-19.457,0-35.29-15.804-35.342-35.249c0-0.036-0.002-0.071-0.002-0.107v-17.373C145.728,354.981,157.7,357.759,170.311,357.759z
	 M314.914,389.32v-10.234c8.586,2.864,17.631,4.379,26.776,4.379s18.19-1.515,26.776-4.379v10.233
	c0,9.413,5.324,17.851,13.547,21.99h-80.646C309.59,407.172,314.914,398.733,314.914,389.32z M467.118,85.689H44.882L25.606,66.414
	h460.787L467.118,85.689z M34.276,96.296v296.703c0,0.022,0,0.044,0,0.066v22.638L15,434.98V77.02L34.276,96.296z M44.882,426.31
	h422.236l19.276,19.275H25.606L44.882,426.31z M477.724,415.703V96.296L497,77.02v357.96L477.724,415.703z"/>
<g>
</g>
<g>
</g>
<g>
</g>
<g>
</g>
<g>
</g>
<g>
</g>
<g>
</g>
<g>
</g>
<g>
</g>
<g>
</g>
<g>
</g>
<g>
</g>
<g>
</g>
<g>
</g>
<g>
</g>
</svg>
